# xmcd
#
# Track frame offsets: 
#        150
#        6585
#        83481
#        134940
#        181353
#
# Disc length: 2506 seconds
#
# Revision: 6
# Processed by: cddbd v1.5.2PL0 Copyright (c) Steve Scherf et al.
# Submitted via: ExactAudioCopy v1.3
#
DISCID=4009c805
DTITLE=Pink Floyd - Animals
DYEAR=1977
DGENRE=Rock
TTITLE0=Pigs On The Wing 1
TTITLE1=Dogs
TTITLE2=Pigs (Three Different Ones)
TTITLE3=Sheep
TTITLE4=Pigs On The Wing 2
EXTD=
EXTT0=
EXTT1=
EXTT2=
EXTT3=
EXTT4=
PLAYORDER=
